<svg width="219" height="47" viewBox="0 0 219 47" fill="none" xmlns="http://www.w3.org/2000/svg">
<path d="M0.0454545 47V0.454544H18.6818C22.1061 0.454544 24.9621 0.96212 27.25 1.97727C29.5379 2.99242 31.2576 4.40151 32.4091 6.20454C33.5606 7.99242 34.1364 10.053 34.1364 12.3864C34.1364 14.2045 33.7727 15.803 33.0455 17.1818C32.3182 18.5455 31.3182 19.6667 30.0455 20.5455C28.7879 21.4091 27.3485 22.0227 25.7273 22.3864V22.8409C27.5 22.9167 29.1591 23.4167 30.7045 24.3409C32.2652 25.2652 33.5303 26.5606 34.5 28.2273C35.4697 29.8788 35.9545 31.8485 35.9545 34.1364C35.9545 36.6061 35.3409 38.8106 34.1136 40.75C32.9015 42.6742 31.1061 44.197 28.7273 45.3182C26.3485 46.4394 23.4167 47 19.9318 47H0.0454545ZM9.88636 38.9545H17.9091C20.6515 38.9545 22.6515 38.4318 23.9091 37.3864C25.1667 36.3258 25.7955 34.9167 25.7955 33.1591C25.7955 31.8712 25.4848 30.7348 24.8636 29.75C24.2424 28.7652 23.3561 27.9924 22.2045 27.4318C21.0682 26.8712 19.7121 26.5909 18.1364 26.5909H9.88636V38.9545ZM9.88636 19.9318H17.1818C18.5303 19.9318 19.7273 19.697 20.7727 19.2273C21.8333 18.7424 22.6667 18.0606 23.2727 17.1818C23.8939 16.303 24.2045 15.25 24.2045 14.0227C24.2045 12.3409 23.6061 10.9848 22.4091 9.95454C21.2273 8.92424 19.5455 8.40909 17.3636 8.40909H9.88636V19.9318ZM42.358 47V0.454544H60.7216C64.2367 0.454544 67.2367 1.08333 69.7216 2.34091C72.2216 3.58333 74.1231 5.34848 75.4261 7.63636C76.7443 9.90909 77.4034 12.5833 77.4034 15.6591C77.4034 18.75 76.7367 21.4091 75.4034 23.6364C74.0701 25.8485 72.1383 27.5455 69.608 28.7273C67.0928 29.9091 64.0473 30.5 60.4716 30.5H48.1761V22.5909H58.8807C60.7595 22.5909 62.3201 22.3333 63.5625 21.8182C64.8049 21.303 65.7292 20.5303 66.3352 19.5C66.9564 18.4697 67.267 17.1894 67.267 15.6591C67.267 14.1136 66.9564 12.8106 66.3352 11.75C65.7292 10.6894 64.7973 9.88636 63.5398 9.34091C62.2973 8.7803 60.7292 8.5 58.8352 8.5H52.1989V47H42.358ZM67.4943 25.8182L79.0625 47H68.1989L56.8807 25.8182H67.4943ZM92.3807 47H81.8352L97.9034 0.454544H110.585L126.631 47H116.085L104.426 11.0909H104.062L92.3807 47ZM91.7216 28.7045H116.631V36.3864H91.7216V28.7045ZM171.165 0.454544V47H162.665L142.415 17.7045H142.074V47H132.233V0.454544H140.869L160.96 29.7273H161.369V0.454544H171.165ZM195.795 47H179.295V0.454544H195.932C200.614 0.454544 204.644 1.38636 208.023 3.25C211.402 5.09848 214 7.75757 215.818 11.2273C217.652 14.697 218.568 18.8485 218.568 23.6818C218.568 28.5303 217.652 32.697 215.818 36.1818C214 39.6667 211.386 42.3409 207.977 44.2045C204.583 46.0682 200.523 47 195.795 47ZM189.136 38.5682H195.386C198.295 38.5682 200.742 38.053 202.727 37.0227C204.727 35.9773 206.227 34.3636 207.227 32.1818C208.242 29.9848 208.75 27.1515 208.75 23.6818C208.75 20.2424 208.242 17.4318 207.227 15.25C206.227 13.0682 204.735 11.4621 202.75 10.4318C200.765 9.40151 198.318 8.88636 195.409 8.88636H189.136V38.5682Z" fill="white"/>
</svg>
